#!OML:ASF F:\VICON\USERDATA\INSTALL\rory3\rory3.ASF
:FULLY-SPECIFIED
:DEGREES
3470
root 0.165748 17.4841 -0.380489 3.54567 3.52303 -0.532816
lowerback -3.46381 -1.39789 -1.25277
upperback -3.00453 -1.82635 1.12532
thorax -1.06587 -0.882135 1.80987
lowerneck -12.0815 -10.9671 -16.3956
upperneck 20.6929 -15.134 13.3855
head 10.9963 -6.99307 5.29266
rclavicle -1.6847e-014 3.57812e-015
rhumerus -392.152 -8.71946 -436.966
rradius 26.6226
rwrist 23.8275
rhand -14.0789 12.2046
rfingers 7.12502
rthumb 12.053 -17.4283
lclavicle -1.6847e-014 3.57812e-015
lhumerus -29.0731 -43.131 114.272
lradius 43.6937
lwrist 5.63826
lhand -6.29841 21.9135
lfingers 7.12502
lthumb 19.5455 50.951
rfemur 4.83764 9.58543 19.649
rtibia 3.18055e-015
rfoot -6.22698 -13.9829
rtoes -13.1587
lfemur -3.73744 -19.5342 -18.4711
ltibia 12.6828
lfoot -12.5238 11.5368
ltoes -20.1211
3471
root 0.169332 17.4835 -0.379809 3.56625 3.33458 -0.574582
lowerback -3.51141 -1.38988 -1.12185
upperback -3.05916 -1.81846 1.08171
thorax -1.10099 -0.880104 1.69167
lowerneck -12.1685 -10.9208 -16.2335
upperneck 21.0946 -15.1122 13.2668
head 11.1321 -6.97618 5.23122
rclavicle 1.36664e-014 -1.0138e-014
rhumerus -391.997 -8.54433 -437.136
rradius 26.5181
rwrist 22.7015
rhand -14.9819 12.2782
rfingers 7.12502
rthumb 11.1822 -17.4038
lclavicle 1.36664e-014 -1.0138e-014
lhumerus -28.9997 -42.6804 113.979
lradius 43.3105
lwrist 5.39511
lhand -6.50527 21.881
lfingers 7.12502
lthumb 19.3466 50.9387
rfemur 4.79235 9.77594 19.6705
rtibia 4.77083e-015
rfoot -6.16634 -14.0309
rtoes -13.3559
lfemur -3.72096 -19.3455 -18.4698
ltibia 12.6804
lfoot -12.4629 11.5508
ltoes -19.0691
3472
root 0.172132 17.4832 -0.377603 3.60755 3.1339 -0.66232
lowerback -3.61208 -1.36831 -0.963122
upperback -3.13511 -1.79258 1.0775
thorax -1.12861 -0.869201 1.59781
lowerneck -12.1439 -10.8651 -16.1236
upperneck 21.4516 -15.0687 13.1203
head 11.2288 -6.96165 5.17552
rclavicle -4.13969e-014 -1.15295e-014
rhumerus -391.941 -8.47009 -437.268
rradius 26.3924
rwrist 21.264
rhand -15.9141 12.5005
rfingers 7.12502
rthumb 10.283 -17.2281
lclavicle -4.13969e-014 -1.15295e-014
lhumerus -29.0086 -42.1464 113.789
lradius 42.8093
lwrist 4.92897
lhand -6.28405 21.9528
lfingers 7.12502
lthumb 19.5593 50.9889
rfemur 4.72115 9.98143 19.7357
rtibia -2.06736e-014
rfoot -6.1587 -14.0031
rtoes -13.2094
lfemur -3.70936 -19.1412 -18.4186
ltibia 12.6843
lfoot -12.3692 11.6
ltoes -18.7213
3473
root 0.172764 17.483 -0.374276 3.58351 2.92498 -0.649958
lowerback -3.65909 -1.34111 -0.946047
upperback -3.19034 -1.75654 1.04232
thorax -1.16197 -0.851263 1.55287
lowerneck -12.1346 -10.8335 -15.9956
upperneck 21.8315 -15.0616 12.9629
head 11.3414 -6.9624 5.10562
rclavicle 1.12438e-014 -1.33186e-014
rhumerus -391.92 -8.58652 -437.285
rradius 26.4595
rwrist 20.5108
rhand -16.0678 12.4155
rfingers 7.12502
rthumb 10.1347 -17.3204
lclavicle 1.12438e-014 -1.33186e-014
lhumerus -29.1007 -41.8044 113.665
lradius 42.1737
lwrist 4.45361
lhand -5.80921 22.1518
lfingers 7.12502
lthumb 20.0158 51.1409
rfemur 4.73455 10.1893 19.7174
rtibia 2.06736e-014
rfoot -6.18032 -14.0111
rtoes -13.211
lfemur -3.59949 -18.9372 -18.5005
ltibia 12.6763
lfoot -12.4631 11.5415
ltoes -18.923
3474
root 0.174882 17.4818 -0.372661 3.55429 2.76177 -0.611596
lowerback -3.66547 -1.31722 -0.916302
upperback -3.24072 -1.72566 0.979958
thorax -1.21397 -0.836337 1.47377
lowerneck -12.1126 -10.8304 -15.943
upperneck 22.2004 -15.1163 12.9362
head 11.478 -6.98477 5.08555
rclavicle 3.35449e-015 1.54058e-014
rhumerus -391.915 -8.8252 -437.272
rradius 26.5936
rwrist 20.0983
rhand -15.7615 12.3227
rfingers 7.12502
rthumb 10.4302 -17.3986
lclavicle 3.35449e-015 1.54058e-014
lhumerus -29.1851 -41.4901 113.536
lradius 41.4756
lwrist 4.10328
lhand -5.78023 22.3761
lfingers 7.12502
lthumb 20.0436 51.3623
rfemur 4.75064 10.3499 19.6618
rtibia 9.54166e-015
rfoot -6.19305 -14.0089
rtoes -13.2234
lfemur -3.50437 -18.7804 -18.6026
ltibia 12.6655
lfoot -12.574 11.5126
ltoes -18.7889
3475
root 0.176635 17.4823 -0.368556 3.57928 2.57905 -0.573698
lowerback -3.68264 -1.32256 -0.935905
upperback -3.34812 -1.73198 0.979946
thorax -1.31415 -0.837878 1.4859
lowerneck -12.0648 -10.7861 -15.9981
upperneck 22.5816 -15.0898 12.9008
head 11.6102 -6.98153 5.09622
rclavicle 1.47349e-014 2.78299e-015
rhumerus -391.964 -8.84308 -437.264
rradius 26.7162
rwrist 19.6553
rhand -15.5835 12.1759
rfingers 7.12502
rthumb 10.6019 -17.5367
lclavicle 1.47349e-014 2.78299e-015
lhumerus -29.287 -40.8523 113.433
lradius 40.6967
lwrist 3.58525
lhand -6.19969 22.7954
lfingers 7.12502
lthumb 19.6404 51.8232
rfemur 4.70989 10.5298 19.6002
rtibia 0
rfoot -6.16322 -14.0412
rtoes -13.49
lfemur -3.41388 -18.6049 -18.7233
ltibia 12.6066
lfoot -12.7031 11.5827
ltoes -18.8175
3476
root 0.178279 17.4825 -0.365213 3.63494 2.45844 -0.620374
lowerback -3.6902 -1.34614 -0.8507
upperback -3.51387 -1.76492 0.978344
thorax -1.48202 -0.854016 1.43829
lowerneck -11.9235 -10.7152 -16.0069
upperneck 22.9374 -15.0488 12.8722
head 11.7087 -6.97228 5.10891
rclavicle -1.9866e-014 2.06736e-014
rhumerus -392.09 -8.93627 -437.253
rradius 26.7923
rwrist 19.3889
rhand -15.4687 12.1248
rfingers 7.12502
rthumb 10.7127 -17.5821
lclavicle -1.9866e-014 2.06736e-014
lhumerus -29.4643 -40.0084 113.288
lradius 39.8166
lwrist 2.67209
lhand -6.40159 22.9243
lfingers 7.12502
lthumb 19.4463 51.9718
rfemur 4.63799 10.6527 19.6299
rtibia -1.59028e-015
rfoot -6.10469 -14.0469
rtoes -13.6941
lfemur -3.40066 -18.4848 -18.7322
ltibia 12.6022
lfoot -12.7303 11.5773
ltoes -18.942
3477
root 0.179021 17.4828 -0.360725 3.65823 2.31578 -0.622383
lowerback -3.72281 -1.3567 -0.800706
upperback -3.60952 -1.78005 0.944289
thorax -1.56438 -0.862027 1.37578
lowerneck -11.9334 -10.673 -16.0058
upperneck 23.346 -15.0504 12.8954
head 11.8699 -6.96882 5.12665
rclavicle -9.39258e-015 -1.54058e-014
rhumerus -392.147 -8.9414 -437.358
rradius 26.8625
rwrist 18.93
rhand -15.4491 12.1518
rfingers 7.12502
rthumb 10.7316 -17.5541
lclavicle -9.39258e-015 -1.54058e-014
lhumerus -29.4829 -39.2456 113.026
lradius 38.8361
lwrist 1.69524
lhand -6.43167 22.7619
lfingers 7.12502
lthumb 19.4174 51.8124
rfemur 4.61355 10.795 19.6219
rtibia 0
rfoot -6.00828 -14.0813
rtoes -14.0158
lfemur -3.38813 -18.3461 -18.7908
ltibia 12.6476
lfoot -12.7003 11.5739
ltoes -19.358
3478
root 0.180192 17.4848 -0.356733 3.74582 2.20839 -0.715735
lowerback -3.83249 -1.3603 -0.662666
upperback -3.69757 -1.78729 0.943483
thorax -1.59773 -0.868007 1.29617
lowerneck -12.068 -10.6573 -15.8913
upperneck 23.7992 -15.064 12.7826
head 12.0535 -6.9684 5.06749
rclavicle 1.09332e-015 4.87022e-015
rhumerus -392.216 -9.14357 -437.38
rradius 26.9274
rwrist 18.7667
rhand -15.2913 12.0477
rfingers 7.12502
rthumb 10.8838 -17.6502
lclavicle 1.09332e-015 4.87022e-015
lhumerus -29.5015 -38.6546 112.784
lradius 37.8751
lwrist 0.92436
lhand -6.53685 22.8643
lfingers 7.12502
lthumb 19.3162 51.9249
rfemur 4.51392 10.9077 19.6964
rtibia -1.59028e-015
rfoot -6.01415 -14.058
rtoes -13.9677
lfemur -3.45438 -18.2321 -18.6942
ltibia 12.6484
lfoot -12.6706 11.5727
ltoes -19.3265
3479
root 0.180016 17.4858 -0.35509 3.88151 2.19099 -0.76685
lowerback -3.94383 -1.44065 -0.634777
upperback -3.81274 -1.89387 0.98448
thorax -1.65098 -0.920668 1.31896
lowerneck -12.2089 -10.5969 -15.8033
upperneck 24.2351 -15.0029 12.6711
head 12.2228 -6.93677 5.02689
rclavicle -1.95057e-015 1.91827e-014
rhumerus -392.25 -9.18996 -437.424
rradius 26.9599
rwrist 18.7823
rhand -14.8486 11.8782
rfingers 7.12502
rthumb 11.3108 -17.7968
lclavicle -1.95057e-015 1.91827e-014
lhumerus -29.4904 -37.9135 112.468
lradius 36.8798
lwrist 0.150628
lhand -6.34204 23.0238
lfingers 7.12502
lthumb 19.5035 52.0656
rfemur 4.35968 10.9277 19.7213
rtibia -1.59028e-015
rfoot -6.02249 -14.0698
rtoes -14.1145
lfemur -3.56714 -18.2089 -18.6126
ltibia 12.6024
lfoot -12.7199 11.4736
ltoes -18.381
3480
root 0.177798 17.4874 -0.353943 4.10872 2.1956 -0.617495
lowerback -4.11058 -1.53646 -0.826693
upperback -3.97623 -2.01573 0.974666
thorax -1.71731 -0.976321 1.41136
lowerneck -12.3339 -10.5382 -15.7633
upperneck 24.7228 -14.9466 12.5739
head 12.418 -6.91097 5.00078
rclavicle -1.30701e-014 1.70955e-014
rhumerus -392.312 -9.00913 -437.579
rradius 26.9861
rwrist 18.5556
rhand -14.561 11.7427
rfingers 7.12502
rthumb 11.5881 -17.9169
lclavicle -1.30701e-014 1.70955e-014
lhumerus -29.4483 -36.9619 112.113
lradius 35.702
lwrist -0.835896
lhand -6.1862 22.8237
lfingers 7.12502
lthumb 19.6534 51.8502
rfemur 4.11026 10.911 19.5113
rtibia -3.18055e-015
rfoot -6.01209 -14.0435
rtoes -13.6107
lfemur -3.8232 -18.2191 -18.6912
ltibia 12.5773
lfoot -12.7167 11.4659
ltoes -18.2563
